<?xml version="1.0" standalone="no"?>
<!DOCTYPE svg PUBLIC "-//W3C//DTD SVG 20010904//EN"
 "http://www.w3.org/TR/2001/REC-SVG-20010904/DTD/svg10.dtd">
<svg version="1.0" xmlns="http://www.w3.org/2000/svg"
 width="2400.000000pt" height="2400.000000pt" viewBox="0 0 2400.000000 2400.000000"
 preserveAspectRatio="xMidYMid meet">
<metadata>
Created by potrace 1.11, written by Peter Selinger 2001-2013
</metadata>
<g transform="translate(0.000000,2400.000000) scale(0.100000,-0.100000)"
fill="#000000" stroke="none">
<path d="M13435 21065 c-101 -20 -111 -22 -179 -46 -141 -48 -365 -199 -487
-325 -94 -99 -205 -247 -270 -360 -32 -57 -119 -231 -119 -239 0 -3 -9 -25
-19 -48 -78 -172 -172 -533 -197 -757 -3 -30 -7 -66 -10 -80 -22 -133 -22
-518 1 -679 22 -159 67 -335 110 -427 8 -17 18 -40 22 -50 32 -78 96 -168 172
-244 71 -70 103 -93 181 -131 289 -142 511 -86 686 171 82 119 166 369 200
586 3 21 9 57 14 79 5 22 12 56 15 75 24 136 84 329 134 427 88 175 250 215
459 114 34 -17 64 -31 66 -31 9 0 223 -134 242 -151 11 -10 24 -19 28 -19 6 0
193 -144 206 -159 3 -3 32 -28 65 -56 32 -27 71 -61 86 -75 14 -14 75 -70 135
-124 132 -121 573 -563 969 -971 309 -318 1098 -1110 1256 -1260 86 -82 399
-370 493 -455 21 -19 44 -39 50 -45 6 -5 54 -49 106 -96 52 -47 108 -97 124
-110 15 -13 45 -40 66 -59 21 -19 49 -44 62 -54 12 -11 59 -51 103 -90 44 -39
107 -93 139 -121 32 -27 66 -57 76 -65 10 -8 37 -31 61 -52 45 -37 75 -63 119
-101 14 -13 93 -79 175 -147 83 -69 152 -127 155 -130 5 -5 292 -244 435 -362
48 -39 589 -487 766 -634 107 -88 253 -210 325 -271 l132 -110 -62 -37 c-33
-20 -149 -93 -256 -161 -107 -68 -219 -139 -249 -157 -78 -48 -66 -41 -506
-323 -223 -143 -430 -276 -460 -295 -79 -50 -687 -446 -965 -629 -129 -85
-287 -188 -350 -229 -200 -131 -1501 -991 -1530 -1012 -19 -13 -690 -458
-1026 -680 -137 -91 -253 -169 -259 -173 -18 -15 -837 -558 -1015 -672 -93
-60 -226 -146 -294 -190 -67 -44 -182 -118 -255 -165 -202 -130 -354 -229
-371 -240 -8 -6 -51 -33 -95 -62 -408 -263 -1206 -808 -1407 -960 -42 -32 -82
-58 -88 -58 -7 0 -33 17 -58 38 -26 20 -51 40 -57 45 -5 4 -21 17 -35 28 -97
81 -434 316 -668 466 -85 54 -204 130 -265 170 -62 39 -137 87 -167 106 -50
31 -894 576 -1085 702 -44 28 -111 72 -150 97 -38 25 -173 112 -300 193 -126
82 -286 185 -355 230 -216 141 -1601 1030 -1634 1049 -11 6 -25 15 -30 19 -6
4 -34 22 -62 40 -98 62 -347 220 -486 311 -48 31 -92 56 -97 56 -5 0 -11 4
-13 8 -1 4 -21 19 -43 32 -22 13 -76 47 -120 75 -111 71 -759 477 -855 535
-25 15 -73 45 -107 66 -190 119 -748 459 -818 498 -16 9 -43 25 -60 35 -16 10
-46 27 -65 38 -19 11 -57 33 -85 50 -27 16 -57 32 -65 36 -8 4 -28 15 -45 26
-72 44 -390 221 -531 296 -60 32 -136 73 -170 91 -461 249 -950 446 -1169 470
-27 3 -63 9 -80 13 -44 11 -250 6 -325 -8 -240 -46 -447 -159 -640 -351 -65
-65 -144 -157 -179 -208 -14 -20 -31 -43 -38 -50 -27 -28 -131 -205 -199 -342
-117 -235 -208 -486 -267 -740 -22 -92 -30 -133 -52 -265 -21 -121 -27 -432
-11 -545 24 -178 61 -299 123 -411 165 -296 408 -510 649 -573 186 -48 327
-15 445 104 96 97 115 148 199 527 110 494 182 663 353 834 117 116 226 150
368 114 53 -13 197 -89 244 -127 5 -5 42 -32 81 -61 71 -51 135 -104 224 -182
61 -54 549 -542 635 -635 79 -87 307 -329 446 -474 53 -56 107 -113 120 -127
109 -120 391 -410 679 -698 389 -390 541 -536 856 -827 85 -79 368 -334 413
-374 44 -37 154 -135 170 -150 9 -8 63 -55 121 -105 58 -49 121 -104 140 -121
19 -17 103 -89 185 -159 83 -70 161 -136 175 -148 14 -12 43 -37 65 -56 22
-18 60 -50 85 -71 25 -21 79 -65 120 -99 41 -34 84 -70 95 -79 11 -10 56 -47
100 -82 44 -36 82 -67 85 -70 3 -3 30 -25 60 -50 30 -25 57 -47 60 -50 3 -3
41 -35 85 -70 44 -36 89 -73 100 -82 43 -36 857 -692 995 -802 47 -37 94 -75
105 -85 11 -9 90 -73 175 -141 85 -69 162 -130 170 -137 82 -66 590 -478 605
-491 11 -9 43 -35 70 -58 80 -65 590 -488 595 -494 3 -3 61 -52 130 -110 69
-57 130 -109 136 -115 6 -5 35 -30 64 -55 30 -25 77 -65 106 -90 28 -25 98
-85 155 -135 57 -49 117 -101 133 -115 15 -14 48 -44 72 -67 80 -76 226 -164
394 -236 47 -20 98 -42 115 -49 16 -7 94 -45 175 -84 153 -76 265 -115 401
-139 150 -27 365 -28 496 -1 44 9 116 29 160 45 74 27 310 142 473 232 86 47
463 271 470 279 3 3 41 28 85 55 44 27 206 132 360 233 154 101 340 223 413
271 560 364 1216 806 1312 884 8 7 44 35 80 62 259 198 473 410 598 592 59 87
78 118 134 223 17 30 35 61 42 69 6 8 10 16 8 18 -1 2 11 34 29 71 42 89 105
247 141 352 16 47 33 94 38 105 4 11 54 157 110 325 57 168 126 366 155 440
28 74 76 196 104 270 140 362 260 576 401 719 75 76 114 94 185 85 125 -15
213 -108 505 -529 58 -82 109 -155 115 -162 5 -6 21 -26 35 -45 74 -99 248
-245 313 -263 12 -4 31 -10 42 -15 104 -47 314 -13 543 88 95 41 342 177 452
248 25 15 93 58 152 94 59 36 221 139 360 229 139 90 312 202 383 248 597 387
1118 732 1315 872 25 17 56 39 70 49 136 93 351 250 433 316 108 86 327 299
418 405 29 35 59 69 64 75 56 59 374 497 567 779 190 277 287 516 313 767 4
36 8 79 10 95 28 210 28 2619 0 2905 -1 19 -6 73 -9 120 -19 248 -78 436 -159
506 -22 18 -69 43 -106 55 -119 39 -200 86 -371 215 -52 39 -208 147 -345 239
-138 92 -324 218 -415 279 -91 61 -166 114 -168 118 -2 5 -7 8 -12 8 -5 0
-172 109 -372 242 -200 133 -442 293 -538 356 -173 114 -618 405 -715 467 -27
18 -129 84 -225 147 -96 63 -311 201 -477 308 -167 107 -342 221 -390 252 -49
32 -102 65 -120 74 -18 9 -37 22 -44 30 -6 8 -16 14 -21 14 -5 0 -14 5 -21 10
-16 14 -374 245 -407 263 -14 8 -194 122 -400 253 -335 214 -811 516 -920 584
-22 14 -86 54 -142 90 -57 36 -111 70 -120 75 -48 29 -180 111 -233 145 -33
21 -71 45 -85 53 -25 14 -682 424 -730 456 -14 9 -55 34 -92 56 -37 22 -177
106 -310 187 -659 398 -1286 728 -1658 873 -326 126 -528 173 -760 173 -58 0
-136 -6 -175 -13z"/>
</g>
</svg>
